<?xml version="1.0" encoding="UTF-8"?>
<svg xmlns="http://www.w3.org/2000/svg" xmlns:xlink="http://www.w3.org/1999/xlink" width="76px" height="18px" viewBox="0 0 76 18" version="1.1">
<g id="surface1">
<path style=" stroke:none;fill-rule:nonzero;fill:rgb(0%,0%,0%);fill-opacity:1;" d="M 1.914062 17.847656 C 1.414062 17.847656 0.96875 17.726562 0.582031 17.484375 C 0.195312 17.238281 0 16.832031 0 16.265625 C 0 15.371094 0.1875 14.464844 0.566406 13.539062 C 0.949219 12.613281 1.417969 11.703125 1.976562 10.804688 C 2.53125 9.902344 3.085938 9.019531 3.640625 8.160156 C 4.203125 7.300781 4.671875 6.480469 5.050781 5.703125 C 5.429688 4.921875 5.617188 4.199219 5.617188 3.535156 C 5.617188 3 5.488281 2.734375 5.230469 2.734375 C 5.054688 2.734375 4.851562 2.875 4.625 3.15625 C 4.398438 3.441406 4.238281 3.859375 4.140625 4.410156 L 3.875 4.363281 C 3.875 3.4375 4.09375 2.65625 4.527344 2.011719 C 4.964844 1.371094 5.523438 0.890625 6.199219 0.566406 C 6.878906 0.242188 7.574219 0.078125 8.28125 0.078125 C 9.105469 0.078125 9.878906 0.316406 10.597656 0.785156 C 11.316406 1.257812 11.8125 2.003906 12.085938 3.023438 C 12.199219 3.429688 12.285156 3.882812 12.34375 4.386719 C 12.398438 4.890625 12.433594 5.324219 12.449219 5.6875 C 12.464844 6.054688 12.472656 6.238281 12.472656 6.238281 C 12.503906 7.550781 12.535156 8.664062 12.558594 9.570312 C 12.582031 10.480469 12.625 11.242188 12.691406 11.859375 C 12.753906 12.476562 12.84375 12.996094 12.957031 13.417969 C 13.070312 13.824219 13.21875 14.152344 13.40625 14.40625 C 13.59375 14.65625 13.828125 14.78125 14.121094 14.78125 C 14.394531 14.78125 14.632812 14.699219 14.835938 14.539062 C 15.035156 14.375 15.167969 14.222656 15.234375 14.074219 L 15.402344 14.195312 C 15.402344 14.941406 15.257812 15.59375 14.96875 16.144531 C 14.675781 16.695312 14.296875 17.117188 13.828125 17.410156 C 13.359375 17.703125 12.867188 17.847656 12.351562 17.847656 C 11.851562 17.847656 11.363281 17.695312 10.890625 17.394531 C 10.410156 17.097656 9.996094 16.628906 9.640625 15.996094 C 9.285156 15.363281 9.050781 14.546875 8.9375 13.539062 C 8.4375 13.507812 7.949219 13.476562 7.472656 13.453125 C 6.996094 13.429688 6.5625 13.417969 6.175781 13.417969 C 5.917969 13.417969 5.671875 13.421875 5.441406 13.433594 C 5.203125 13.4375 4.972656 13.449219 4.746094 13.464844 C 4.601562 13.96875 4.484375 14.476562 4.398438 14.988281 C 4.308594 15.5 4.261719 15.996094 4.261719 16.484375 C 4.261719 16.859375 4.019531 17.179688 3.535156 17.449219 C 3.050781 17.714844 2.511719 17.847656 1.914062 17.847656 M 5.546875 11.203125 C 5.949219 11.089844 6.378906 11.011719 6.828125 10.972656 C 7.28125 10.933594 7.765625 10.910156 8.28125 10.910156 L 8.816406 10.910156 C 8.785156 9.710938 8.738281 8.476562 8.683594 7.210938 C 8.625 5.945312 8.421875 4.769531 8.066406 3.683594 C 7.9375 4.851562 7.613281 6.074219 7.097656 7.355469 C 6.578125 8.640625 6.0625 9.921875 5.546875 11.203125 Z M 27.539062 17.921875 C 26.890625 17.921875 26.359375 17.773438 25.9375 17.484375 C 25.519531 17.191406 25.179688 16.796875 24.921875 16.300781 C 24.664062 15.804688 24.457031 15.257812 24.300781 14.648438 C 24.148438 14.039062 24.007812 13.425781 23.878906 12.808594 C 23.71875 11.949219 23.519531 11.144531 23.285156 10.398438 C 23.050781 9.652344 22.675781 9.132812 22.160156 8.839844 C 21.835938 10.027344 21.53125 11.214844 21.242188 12.40625 C 20.949219 13.597656 20.804688 14.78125 20.804688 15.949219 C 20.804688 16.128906 20.808594 16.308594 20.8125 16.496094 C 20.824219 16.683594 20.835938 16.867188 20.851562 17.042969 C 20.289062 17.578125 19.632812 17.847656 18.890625 17.847656 C 18.277344 17.847656 17.722656 17.613281 17.230469 17.140625 C 16.738281 16.671875 16.492188 15.910156 16.492188 14.855469 C 16.492188 14.058594 16.621094 13.246094 16.878906 12.417969 C 17.140625 11.59375 17.441406 10.757812 17.785156 9.914062 C 18.136719 9.070312 18.4375 8.226562 18.695312 7.390625 C 18.957031 6.558594 19.085938 5.734375 19.085938 4.921875 C 19.085938 4.386719 19.019531 4.007812 18.890625 3.789062 C 18.761719 3.570312 18.59375 3.460938 18.382812 3.460938 C 18.15625 3.460938 17.910156 3.578125 17.640625 3.804688 C 17.375 4.03125 17.121094 4.378906 16.878906 4.851562 L 16.710938 4.800781 C 16.742188 3.972656 16.929688 3.210938 17.269531 2.511719 C 17.605469 1.816406 18.0625 1.257812 18.632812 0.84375 C 19.210938 0.429688 19.835938 0.226562 20.515625 0.226562 C 21.191406 0.226562 21.789062 0.480469 22.304688 0.988281 C 22.824219 1.503906 23.082031 2.382812 23.082031 3.632812 C 23.082031 4.183594 23.027344 4.773438 22.921875 5.398438 C 22.816406 6.023438 22.695312 6.660156 22.546875 7.308594 C 23.273438 6.675781 23.90625 5.972656 24.445312 5.199219 C 24.988281 4.429688 25.410156 3.675781 25.710938 2.9375 C 26.007812 2.199219 26.15625 1.554688 26.15625 1.003906 C 26.15625 0.648438 26.085938 0.347656 25.9375 0.105469 C 26.730469 0.105469 27.4375 0.21875 28.054688 0.445312 C 28.679688 0.671875 29.175781 0.984375 29.546875 1.382812 C 29.917969 1.78125 30.105469 2.238281 30.105469 2.757812 C 30.105469 3.453125 29.710938 4.21875 28.925781 5.042969 C 28.144531 5.871094 26.828125 6.691406 24.96875 7.503906 C 25.4375 7.714844 25.820312 8.027344 26.117188 8.441406 C 26.417969 8.855469 26.667969 9.300781 26.867188 9.78125 C 27.074219 10.257812 27.246094 10.722656 27.390625 11.179688 C 27.667969 11.972656 27.9375 12.644531 28.199219 13.1875 C 28.46875 13.730469 28.851562 14 29.355469 14 C 29.675781 14 29.964844 13.894531 30.214844 13.683594 C 30.464844 13.472656 30.644531 13.238281 30.757812 12.980469 L 30.902344 13.050781 C 30.902344 13.929688 30.773438 14.738281 30.515625 15.476562 C 30.257812 16.214844 29.878906 16.804688 29.378906 17.253906 C 28.878906 17.699219 28.265625 17.921875 27.539062 17.921875 Z M 33.398438 17.847656 C 32.898438 17.847656 32.453125 17.726562 32.066406 17.484375 C 31.679688 17.238281 31.484375 16.832031 31.484375 16.265625 C 31.484375 15.371094 31.675781 14.464844 32.050781 13.539062 C 32.433594 12.613281 32.902344 11.703125 33.460938 10.804688 C 34.015625 9.902344 34.570312 9.019531 35.128906 8.160156 C 35.6875 7.300781 36.15625 6.480469 36.53125 5.703125 C 36.914062 4.921875 37.105469 4.199219 37.105469 3.535156 C 37.105469 3 36.976562 2.734375 36.714844 2.734375 C 36.539062 2.734375 36.335938 2.875 36.109375 3.15625 C 35.886719 3.441406 35.722656 3.859375 35.625 4.410156 L 35.359375 4.363281 C 35.359375 3.4375 35.578125 2.65625 36.015625 2.011719 C 36.449219 1.371094 37.007812 0.890625 37.683594 0.566406 C 38.363281 0.242188 39.058594 0.078125 39.769531 0.078125 C 40.589844 0.078125 41.363281 0.316406 42.082031 0.785156 C 42.800781 1.257812 43.296875 2.003906 43.570312 3.023438 C 43.683594 3.429688 43.765625 3.882812 43.824219 4.386719 C 43.878906 4.890625 43.917969 5.324219 43.933594 5.6875 C 43.949219 6.054688 43.957031 6.238281 43.957031 6.238281 C 43.988281 7.550781 44.019531 8.664062 44.039062 9.570312 C 44.066406 10.480469 44.109375 11.242188 44.175781 11.859375 C 44.242188 12.476562 44.328125 12.996094 44.441406 13.417969 C 44.554688 13.824219 44.703125 14.152344 44.886719 14.40625 C 45.074219 14.65625 45.3125 14.78125 45.605469 14.78125 C 45.878906 14.78125 46.117188 14.699219 46.320312 14.539062 C 46.523438 14.375 46.65625 14.222656 46.71875 14.074219 L 46.886719 14.195312 C 46.886719 14.941406 46.742188 15.59375 46.453125 16.144531 C 46.160156 16.695312 45.78125 17.117188 45.3125 17.410156 C 44.847656 17.703125 44.355469 17.847656 43.835938 17.847656 C 43.335938 17.847656 42.847656 17.695312 42.371094 17.394531 C 41.894531 17.097656 41.480469 16.628906 41.125 15.996094 C 40.769531 15.363281 40.535156 14.546875 40.421875 13.539062 C 39.921875 13.507812 39.433594 13.476562 38.953125 13.453125 C 38.480469 13.429688 38.046875 13.417969 37.660156 13.417969 C 37.402344 13.417969 37.15625 13.421875 36.917969 13.433594 C 36.6875 13.4375 36.457031 13.449219 36.230469 13.464844 C 36.085938 13.96875 35.96875 14.476562 35.882812 14.988281 C 35.792969 15.5 35.746094 15.996094 35.746094 16.484375 C 35.746094 16.859375 35.503906 17.179688 35.019531 17.449219 C 34.535156 17.714844 33.996094 17.847656 33.398438 17.847656 M 37.03125 11.203125 C 37.433594 11.089844 37.863281 11.011719 38.316406 10.972656 C 38.765625 10.933594 39.25 10.910156 39.769531 10.910156 L 40.300781 10.910156 C 40.269531 9.710938 40.222656 8.476562 40.164062 7.210938 C 40.109375 5.945312 39.90625 4.769531 39.550781 3.683594 C 39.421875 4.851562 39.097656 6.074219 38.582031 7.355469 C 38.066406 8.640625 37.546875 9.921875 37.03125 11.203125 Z M 52.289062 17.894531 C 51.207031 17.894531 50.316406 17.710938 49.609375 17.335938 C 48.910156 16.964844 48.390625 16.484375 48.050781 15.898438 C 47.710938 15.316406 47.542969 14.714844 47.542969 14.097656 C 47.542969 13.5 47.6875 12.925781 47.976562 12.386719 C 48.269531 11.839844 48.683594 11.390625 49.226562 11.03125 C 49.765625 10.675781 50.410156 10.496094 51.152344 10.496094 C 51.136719 10.644531 51.125 10.777344 51.125 10.894531 C 51.125 11.019531 51.125 11.082031 51.125 11.082031 C 51.125 12.167969 51.230469 13.023438 51.441406 13.652344 C 51.652344 14.273438 51.917969 14.71875 52.242188 14.988281 C 52.5625 15.257812 52.894531 15.390625 53.234375 15.390625 C 53.75 15.390625 54.210938 15.183594 54.613281 14.769531 C 55.019531 14.355469 55.21875 13.871094 55.21875 13.320312 C 55.21875 12.703125 54.957031 12.160156 54.433594 11.691406 C 53.910156 11.21875 53.242188 10.699219 52.433594 10.132812 C 51.984375 9.792969 51.5 9.40625 50.992188 8.972656 C 50.484375 8.542969 50.054688 8.035156 49.699219 7.445312 C 49.34375 6.851562 49.164062 6.148438 49.164062 5.335938 C 49.164062 4.492188 49.363281 3.746094 49.757812 3.097656 C 50.152344 2.449219 50.679688 1.898438 51.332031 1.453125 C 51.984375 1.007812 52.703125 0.667969 53.484375 0.429688 C 54.269531 0.195312 55.050781 0.078125 55.824219 0.078125 C 56.777344 0.078125 57.5625 0.234375 58.175781 0.542969 C 58.789062 0.851562 59.25 1.246094 59.554688 1.734375 C 59.863281 2.222656 60.015625 2.722656 60.015625 3.242188 C 60.015625 3.730469 59.882812 4.199219 59.617188 4.644531 C 59.351562 5.089844 58.957031 5.449219 58.441406 5.726562 C 57.925781 6.003906 57.285156 6.140625 56.527344 6.140625 C 56.574219 5.914062 56.609375 5.707031 56.625 5.523438 C 56.640625 5.332031 56.648438 5.167969 56.648438 5.019531 C 56.648438 4.210938 56.476562 3.628906 56.128906 3.277344 C 55.78125 2.929688 55.398438 2.757812 54.976562 2.757812 C 54.574219 2.757812 54.1875 2.90625 53.816406 3.210938 C 53.445312 3.507812 53.257812 3.988281 53.257812 4.65625 C 53.257812 5.222656 53.410156 5.710938 53.707031 6.117188 C 54.003906 6.519531 54.394531 6.878906 54.871094 7.1875 C 55.347656 7.496094 55.847656 7.796875 56.382812 8.085938 C 56.929688 8.378906 57.460938 8.699219 57.964844 9.050781 C 58.476562 9.398438 58.902344 9.808594 59.242188 10.277344 C 59.578125 10.75 59.75 11.339844 59.75 12.054688 C 59.75 12.800781 59.546875 13.527344 59.144531 14.230469 C 58.738281 14.9375 58.191406 15.5625 57.496094 16.109375 C 56.800781 16.652344 56.007812 17.085938 55.113281 17.410156 C 54.214844 17.734375 53.273438 17.894531 52.289062 17.894531 Z M 63.359375 17.847656 C 62.777344 17.847656 62.257812 17.59375 61.808594 17.082031 C 61.355469 16.570312 61.128906 15.769531 61.128906 14.683594 C 61.128906 13.921875 61.230469 13.15625 61.433594 12.394531 C 61.632812 11.632812 61.839844 10.933594 62.050781 10.300781 C 62.371094 9.265625 62.65625 8.304688 62.898438 7.429688 C 63.140625 6.554688 63.261719 5.71875 63.261719 4.921875 C 63.261719 4.371094 63.199219 3.988281 63.078125 3.777344 C 62.957031 3.566406 62.800781 3.460938 62.605469 3.460938 C 62.398438 3.460938 62.167969 3.578125 61.917969 3.804688 C 61.667969 4.03125 61.421875 4.378906 61.179688 4.851562 L 61.007812 4.800781 C 61.039062 3.859375 61.242188 3.050781 61.613281 2.367188 C 61.984375 1.6875 62.453125 1.160156 63.019531 0.785156 C 63.582031 0.410156 64.164062 0.226562 64.761719 0.226562 C 65.441406 0.226562 66.023438 0.496094 66.507812 1.039062 C 66.992188 1.582031 67.234375 2.523438 67.234375 3.851562 C 67.234375 4.550781 67.164062 5.28125 67.027344 6.042969 C 66.890625 6.804688 66.730469 7.566406 66.554688 8.332031 C 67.101562 8.101562 67.683594 7.941406 68.296875 7.84375 C 68.910156 7.746094 69.566406 7.699219 70.261719 7.699219 L 70.890625 7.699219 C 71.101562 6.886719 71.28125 6.085938 71.433594 5.296875 C 71.585938 4.511719 71.664062 3.777344 71.664062 3.097656 C 71.664062 2.855469 71.652344 2.628906 71.628906 2.417969 C 71.605469 2.207031 71.574219 2.003906 71.542969 1.808594 L 71.542969 1.613281 C 71.785156 1.175781 72.136719 0.824219 72.601562 0.566406 C 73.058594 0.304688 73.523438 0.175781 73.988281 0.175781 C 74.523438 0.175781 74.992188 0.351562 75.394531 0.703125 C 75.796875 1.050781 76 1.605469 76 2.367188 C 76 2.933594 75.890625 3.664062 75.671875 4.558594 C 75.453125 5.449219 75.207031 6.367188 74.933594 7.308594 C 74.613281 8.460938 74.316406 9.574219 74.054688 10.652344 C 73.785156 11.734375 73.652344 12.648438 73.652344 13.394531 C 73.652344 13.894531 73.730469 14.292969 73.894531 14.585938 C 74.054688 14.878906 74.3125 15.023438 74.667969 15.023438 C 75.152344 15.023438 75.515625 14.789062 75.757812 14.316406 L 75.902344 14.390625 C 75.886719 15.074219 75.703125 15.671875 75.347656 16.191406 C 74.992188 16.710938 74.550781 17.117188 74.023438 17.410156 C 73.5 17.703125 72.964844 17.847656 72.414062 17.847656 C 71.929688 17.847656 71.476562 17.722656 71.050781 17.46875 C 70.621094 17.21875 70.273438 16.824219 70.007812 16.289062 C 69.738281 15.753906 69.605469 15.054688 69.605469 14.195312 C 69.605469 13.628906 69.664062 13.007812 69.785156 12.335938 C 69.90625 11.660156 70.050781 10.976562 70.210938 10.277344 C 69.46875 10.230469 68.742188 10.203125 68.03125 10.203125 C 67.675781 10.203125 67.335938 10.214844 67.015625 10.230469 C 66.691406 10.246094 66.386719 10.269531 66.09375 10.300781 C 65.949219 10.953125 65.824219 11.589844 65.722656 12.214844 C 65.613281 12.839844 65.5625 13.441406 65.5625 14.027344 C 65.5625 14.351562 65.582031 14.671875 65.621094 14.988281 C 65.660156 15.304688 65.730469 15.609375 65.828125 15.898438 C 65.570312 16.53125 65.210938 17.015625 64.753906 17.347656 C 64.289062 17.679688 63.824219 17.847656 63.359375 17.847656 Z M 63.359375 17.847656 "/>
</g>
</svg>
